<svg width="300" height="300" viewBox="0 0 300 300" fill="none" xmlns="http://www.w3.org/2000/svg">
<path d="M300 150C300 232.843 232.843 300 150 300C67.1573 300 0 232.843 0 150C0 67.1573 67.1573 0 150 0C232.843 0 300 67.1573 300 150Z" fill="#2FAB02"/>
<path d="M138.78 183.36L139.12 218.38C139.12 222.46 137.193 226.2 133.34 229.6C129.713 233 126.087 234.7 122.46 234.7C117.247 234.7 113.96 230.62 112.6 222.46C112.373 220.647 111.467 204.1 109.88 172.82C108.293 141.313 105.233 116.607 100.7 98.7C98.66 90.0867 97.64 84.9867 97.64 83.4C97.64 75.92 102.173 72.18 111.24 72.18C115.093 72.18 118.153 73.6533 120.42 76.6C122.687 79.5467 124.047 82.6067 124.5 85.78C125.18 88.7267 125.747 92.8067 126.2 98.02C126.653 103.233 126.993 106.52 127.22 107.88C131.98 96.5467 139.12 88.0467 148.64 82.38C158.16 76.7133 168.587 73.88 179.92 73.88C198.507 73.88 207.8 78.64 207.8 88.16C207.8 92.92 206.1 96.7733 202.7 99.72C199.527 102.44 195.787 103.8 191.48 103.8C172.213 103.8 158.613 109.92 150.68 122.16C142.747 134.4 138.78 154.8 138.78 183.36Z" fill="white"/>
</svg>
